<?xml version="1.0" encoding="utf-8"?>
<!-- Generator: Adobe Illustrator 19.2.1, SVG Export Plug-In . SVG Version: 6.00 Build 0)  -->
<svg version="1.1" id="Layer_1" xmlns="http://www.w3.org/2000/svg" xmlns:xlink="http://www.w3.org/1999/xlink" x="0px" y="0px"
	 viewBox="0 0 377.5 80.6" style="enable-background:new 0 0 377.5 80.6;" xml:space="preserve">
<style type="text/css">
	.st0{fill:#FFFFFF;}
</style>
<g id="XMLID_46_">
	<g id="XMLID_42_">
		<path id="XMLID_43_" class="st0" d="M355.2,58.5h-30.7l-6.3,17.3h-15.6l29-75.6h17.1l28.8,75.6h-16L355.2,58.5z M329.4,45h20.9
			l-10.4-28.6L329.4,45z"/>
		<path id="XMLID_41_" class="st0" d="M264.3,61.7V0.1h-14.7v58.8c3.7,3,6.1,7.5,6.1,12.6c0,1.5-0.2,2.9-0.6,4.2H298v-14
			C298,61.7,264.3,61.7,264.3,61.7z"/>
	</g>
	<g id="XMLID_40_">
		<path id="XMLID_64_" class="st0" d="M26.2,16.5h11.7v14H26.2v24.4c0,5.1,2.4,6.8,6.9,6.8c1.9,0,4-0.2,4.9-0.5v13
			c-1.4,0.6-4.3,1.4-8.9,1.4c-11.4,0-18.5-6.8-18.5-18V30.4H0v-14h3c6.2,0,9-4,9-9.2V0.1h14.2V16.5z"/>
		<path id="XMLID_61_" class="st0" d="M100.9,57.2c-3,10.1-12.2,18.5-26.5,18.5c-16,0-30.1-11.5-30.1-31.2
			C44.3,26,58.1,13.9,73,13.9c18,0,28.8,11.5,28.8,30.2c0,2.3-0.2,4.6-0.2,4.9H59.8c0.4,7.7,6.9,13.3,14.7,13.3
			c7.3,0,11.4-3.7,13.3-8.9L100.9,57.2z M86.3,38.2c-0.2-5.8-4-11.5-13-11.5c-8.2,0-12.7,6.2-13,11.5H86.3z"/>
		<path id="XMLID_56_" class="st0" d="M123.6,44.9c0,10.5,6.9,16.5,14.9,16.5s12.1-5.3,13.4-9.8l13.9,4.6
			c-2.6,9.7-11.7,19.7-27.2,19.7c-17.2,0-30.7-13-30.7-30.9c0-18,13.3-30.9,30.2-30.9c15.9,0,24.9,9.8,27.4,19.7l-14.1,4.7
			c-1.4-4.9-5.1-9.8-12.9-9.8C130.3,28.5,123.6,34.3,123.6,44.9z"/>
		<path id="XMLID_54_" class="st0" d="M224.1,75.7c-0.4-1.3-0.6-2.7-0.6-4.2c0-5.1,2.4-9.6,6-12.5V39c0-12.8-6.9-23.1-21.7-23.1
			c-5.6,0-12,1.9-15.8,6.4V0h-15.8v75.7H192V41.5c0.4-6.4,4.3-11.4,10.9-11.4c7.6,0,10.8,5.1,10.8,11.6v34H224.1z"/>
		<circle id="XMLID_136_" class="st0" cx="239.6" cy="71.5" r="9.1"/>
	</g>
</g>
</svg>
